<svg width="204" height="41" viewBox="0 0 204 41" fill="none" xmlns="http://www.w3.org/2000/svg">
<path d="M8.26002 11.2669C7.60064 11.2719 6.94682 11.1457 6.33632 10.8954C5.7598 10.6575 5.23563 10.3078 4.79368 9.86642C4.35186 9.42313 4.00557 8.89331 3.77633 8.3099C3.52753 7.68247 3.40191 7.01264 3.40639 6.33731C3.40146 5.66315 3.5271 4.99444 3.77633 4.36844C4.00557 3.78503 4.35186 3.25521 4.79368 2.81191C5.23367 2.36812 5.75836 2.01812 6.33632 1.7829C6.94631 1.53094 7.60047 1.40462 8.26002 1.41142C8.92078 1.40432 9.57622 1.53065 10.1874 1.7829C10.7654 2.01812 11.2902 2.36812 11.7301 2.81191C12.173 3.25585 12.5216 3.78536 12.7549 4.36844C13.0072 4.99354 13.133 5.66287 13.1248 6.33731C13.133 7.01297 13.0072 7.6835 12.7549 8.3099C12.5216 8.89297 12.173 9.42249 11.7301 9.86642C11.2882 10.3078 10.7639 10.6575 10.1874 10.8954C9.57571 11.146 8.92062 11.2722 8.26002 11.2669ZM8.54858 10.5239C9.09983 10.5362 9.64089 10.3737 10.0949 10.0596C10.5539 9.72885 10.9136 9.27778 11.1345 8.75568C11.3956 8.12797 11.5216 7.45197 11.5044 6.77195C11.5219 5.93007 11.3644 5.09378 11.042 4.31643C10.7763 3.67023 10.3433 3.10716 9.78794 2.68561C9.27897 2.30598 8.66099 2.10261 8.027 2.10609C7.47366 2.09592 6.93039 2.25531 6.46954 2.56302C6.00143 2.88651 5.63343 3.33581 5.40776 3.8595C5.14365 4.48759 5.01747 5.16547 5.03781 5.84695C5.01934 6.69205 5.17947 7.53148 5.50765 8.3099C5.77753 8.95884 6.21568 9.52327 6.77654 9.94443C7.29038 10.3331 7.91638 10.5431 8.55969 10.5425L8.54858 10.5239Z" fill="#FCFBFA"/>
<path d="M19.6837 11.2694C18.7897 11.2941 17.9047 11.0841 17.1163 10.6601C16.4136 10.275 15.8339 9.69803 15.4442 8.99587C15.0422 8.25997 14.8382 7.43157 14.8522 6.59236C14.8479 5.91376 14.9853 5.24178 15.2555 4.61978C15.5239 4.00754 15.8998 3.44883 16.3653 2.97038C16.8257 2.49215 17.3716 2.10525 17.9746 1.82992C18.5825 1.55463 19.2424 1.414 19.9094 1.41758C20.3245 1.41216 20.7394 1.44448 21.1487 1.51415C21.4561 1.56947 21.7581 1.65151 22.0514 1.75934C22.314 1.85964 22.584 1.97852 22.8504 2.11225L22.9392 4.69407H22.6802L21.6851 2.81065C21.4091 2.60805 21.1113 2.43732 20.7973 2.3017C20.5138 2.19329 20.2126 2.13912 19.9094 2.14197C19.2738 2.13327 18.6503 2.31569 18.1189 2.66576C17.5807 3.02366 17.1497 3.52193 16.8721 4.10713C16.5579 4.7689 16.4021 5.49529 16.4171 6.2283C16.397 7.02131 16.5472 7.80937 16.8573 8.53894C17.1061 9.13764 17.5192 9.65299 18.0485 10.0249C18.5367 10.3591 19.115 10.5354 19.7059 10.5301C20.1351 10.5419 20.5628 10.4738 20.9674 10.3295C21.2901 10.2045 21.5978 10.0438 21.8849 9.85029L22.8504 8.2269H23.0983L22.9245 10.5598C22.4888 10.7758 22.0343 10.9511 21.5667 11.0836C20.9499 11.2282 20.3168 11.2906 19.6837 11.2694Z" fill="#FCFBFA"/>
<path d="M26.884 11.1253V10.895L28.3416 10.3155V2.36195H26.0628L25.038 4.55001H24.8086V1.57812H33.3766V4.55001H33.1472L32.1372 2.36195H29.8436V10.3155L31.3234 10.895V11.1253H26.884Z" fill="#FCFBFA"/>
<path d="M39.6329 11.2669C38.9723 11.2719 38.3173 11.1457 37.7055 10.8954C37.1289 10.6575 36.6048 10.3078 36.1628 9.8664C35.7222 9.42211 35.3761 8.89256 35.1455 8.30988C34.8966 7.68247 34.771 7.01263 34.7755 6.33729C34.7706 5.66313 34.8962 4.99442 35.1455 4.36841C35.3761 3.78573 35.7222 3.25618 36.1628 2.81189C36.6028 2.36809 37.1275 2.0181 37.7055 1.78288C38.3167 1.53092 38.9721 1.4046 39.6329 1.41139C40.2936 1.4046 40.949 1.53092 41.5603 1.78288C42.1372 2.01997 42.6616 2.36973 43.1029 2.81189C43.5433 3.2578 43.8916 3.7868 44.1277 4.36841C44.3783 4.99402 44.504 5.663 44.4976 6.33729C44.5039 7.01278 44.3782 7.68295 44.1277 8.30988C43.8916 8.8915 43.5433 9.42049 43.1029 9.8664C42.6599 10.3065 42.136 10.656 41.5603 10.8954C40.9485 11.1457 40.2934 11.2719 39.6329 11.2669ZM39.9214 10.5239C40.4766 10.5434 41.0234 10.3846 41.4826 10.0707C41.9425 9.74096 42.3024 9.2896 42.5222 8.7668C42.7849 8.13959 42.911 7.46323 42.8921 6.78307C42.9107 5.94145 42.7545 5.10517 42.4334 4.32756C42.1651 3.68183 41.731 3.11909 41.1755 2.69673C40.6668 2.31661 40.0486 2.11319 39.4146 2.11721C38.8613 2.10751 38.3182 2.26686 37.8571 2.57414C37.3901 2.89785 37.0234 3.34719 36.7991 3.87062C36.5349 4.49868 36.4087 5.17658 36.4292 5.85807C36.4126 6.70301 36.5726 7.54205 36.899 8.32102C37.1689 8.96996 37.607 9.53439 38.1679 9.95556C38.6779 10.334 39.2947 10.5396 39.9288 10.5425L39.9214 10.5239Z" fill="#FCFBFA"/>
<path d="M46.1602 11.1242V10.8939L47.3292 10.3144V2.37575L46.1602 1.79623V1.56219H50.2C51.1507 1.51843 52.0954 1.73409 52.9339 2.18628C53.2697 2.38724 53.5438 2.67742 53.726 3.02482C53.9081 3.37223 53.9912 3.76338 53.966 4.15516C53.969 4.67894 53.7748 5.18449 53.4222 5.57052C53.0155 6.01061 52.5074 6.34356 51.9424 6.54009C51.2684 6.78686 50.5548 6.90651 49.8375 6.89301H48.8275V10.3144L50.1556 10.8939V11.1242H46.1602ZM48.8423 2.36088V6.12775H49.9521C50.5912 6.16522 51.2236 5.98022 51.7427 5.60395C51.9481 5.44967 52.1141 5.24871 52.2273 5.01754C52.3405 4.78638 52.3975 4.5316 52.3938 4.27404C52.4177 3.99391 52.3697 3.71229 52.2544 3.45607C52.1391 3.19984 51.9604 2.97755 51.7352 2.81039C51.1657 2.47662 50.5103 2.32017 49.8522 2.36088H48.8423Z" fill="#FCFBFA"/>
<path d="M60.2992 11.2669C59.6398 11.2719 58.9859 11.1457 58.3754 10.8954C57.7989 10.6575 57.2747 10.3078 56.8327 9.86642C56.3909 9.42313 56.0446 8.89331 55.8154 8.3099C55.5666 7.68247 55.441 7.01264 55.4455 6.33731C55.4405 5.66315 55.5662 4.99444 55.8154 4.36844C56.0446 3.78503 56.3909 3.25521 56.8327 2.81191C57.2727 2.36812 57.7974 2.01812 58.3754 1.7829C58.9854 1.53094 59.6396 1.40462 60.2992 1.41142C60.9599 1.40432 61.6154 1.53065 62.2266 1.7829C62.8051 2.01903 63.3309 2.36888 63.7729 2.81191C64.2135 3.25696 64.5607 3.78625 64.794 4.36844C65.0463 4.99354 65.172 5.66287 65.1639 6.33731C65.172 7.01297 65.0463 7.6835 64.794 8.3099C64.5607 8.89209 64.2135 9.42137 63.7729 9.86642C63.3288 10.307 62.8036 10.6565 62.2266 10.8954C61.6149 11.146 60.9598 11.2722 60.2992 11.2669ZM60.5914 10.5239C61.1414 10.5357 61.6812 10.3732 62.1341 10.0596C62.5931 9.72885 62.9526 9.27778 63.1736 8.75568C63.4346 8.12797 63.5607 7.45197 63.5435 6.77195C63.561 5.93007 63.4035 5.09378 63.0811 4.31643C62.8154 3.67023 62.3824 3.10716 61.827 2.68561C61.318 2.30598 60.7001 2.10261 60.0661 2.10609C59.5128 2.09639 58.9697 2.25574 58.5086 2.56302C58.0405 2.88651 57.6725 3.33581 57.4468 3.8595C57.1827 4.48759 57.0565 5.16547 57.0769 5.84695C57.0584 6.69205 57.2185 7.53148 57.5467 8.3099C57.8166 8.95884 58.2548 9.52327 58.8157 9.94443C59.3275 10.3316 59.9506 10.5414 60.5914 10.5425V10.5239Z" fill="#FCFBFA"/>
<path d="M72.4057 6.24419L68.2216 11.1255H66.002V10.8952L66.9416 10.5237L70.9666 5.89872L67.3744 2.221L66.2905 1.81608V1.58206H69.62V1.81608L68.5805 2.32131L72.4057 6.24419ZM71.2663 11.1255V10.8952L72.4204 10.3157V2.37703L71.2663 1.79751V1.56348H75.073V1.79751L73.9187 2.37703V10.3157L75.073 10.8952V11.1255H71.2663ZM73.9335 6.24419L77.7588 2.30273L76.7192 1.79751V1.56348H79.9637V1.79751L78.8835 2.20243L75.3764 5.77984L79.5604 10.5163L80.4557 10.8878V11.1181H78.1065L73.9335 6.24419Z" fill="#FCFBFA"/>
<path d="M81.377 11.1255V10.8952L82.5459 10.3157V2.37703L81.377 1.79751V1.56348H85.2021V1.79751L84.0628 2.37703V5.7947H88.7499V2.37703L87.5957 1.79751V1.56348H91.4246V1.79751L90.2556 2.37703V10.3157L91.4246 10.8952V11.1255H87.5994V10.8952L88.7536 10.3157V6.60082H84.0665V10.3157L85.2058 10.8952V11.1255H81.377Z" fill="#FCFBFA"/>
<path d="M97.9279 11.2669C97.2673 11.2722 96.6122 11.146 96.0005 10.8954C95.424 10.6575 94.8997 10.3078 94.4577 9.86643C94.0171 9.42213 93.671 8.89258 93.4404 8.3099C93.1916 7.68247 93.066 7.01264 93.0705 6.33732C93.0655 5.66315 93.1912 4.99445 93.4404 4.36844C93.671 3.78576 94.0171 3.2562 94.4577 2.81191C94.8977 2.36812 95.4225 2.01812 96.0005 1.7829C96.6117 1.53065 97.2671 1.40432 97.9279 1.41142C98.5874 1.40431 99.2417 1.53065 99.8516 1.7829C100.43 2.01903 100.956 2.36888 101.398 2.81191C101.838 3.25783 102.187 3.78682 102.423 4.36844C102.673 4.99404 102.799 5.66302 102.793 6.33732C102.799 7.01281 102.673 7.68298 102.423 8.3099C102.187 8.89152 101.838 9.42051 101.398 9.86643C100.954 10.307 100.429 10.6565 99.8516 10.8954C99.2412 11.146 98.5873 11.2723 97.9279 11.2669ZM98.2164 10.524C98.7665 10.5357 99.3062 10.3732 99.7591 10.0596C100.219 9.72984 100.579 9.27848 100.799 8.75568C101.061 8.12847 101.187 7.45211 101.169 6.77195C101.187 5.93033 101.031 5.09405 100.71 4.31643C100.442 3.67071 100.007 3.10797 99.452 2.68561C98.9433 2.30549 98.3251 2.10207 97.6911 2.10609C97.1378 2.09639 96.5947 2.25574 96.1336 2.56302C95.6655 2.88651 95.2976 3.33581 95.0719 3.8595C94.8096 4.48813 94.6835 5.16562 94.702 5.84695C94.6835 6.69205 94.8435 7.53148 95.1717 8.3099C95.4416 8.95884 95.8798 9.52327 96.4407 9.94444C96.9525 10.3316 97.5757 10.5414 98.2164 10.5425V10.524Z" fill="#FCFBFA"/>
<path d="M12.7293 40.438V39.8436L15.9478 38.2833V17.9631H9.39979V21.0093C9.39979 24.4517 9.31349 27.2255 9.14085 29.3305C9.03339 30.9644 8.82326 32.5898 8.51187 34.197C8.35492 35.0509 8.10686 35.8854 7.77198 36.686C7.31548 37.7182 6.64746 38.6423 5.81134 39.3978C5.19867 39.939 4.47118 40.3329 3.68416 40.5494C3.06184 40.7128 2.42208 40.8002 1.7789 40.8094C1.21411 40.8094 0.86272 40.7352 0.724607 40.5866C0.560972 40.3337 0.489096 40.032 0.52112 39.7321V36.3516L0.743032 36.1287H1.07604C1.92678 36.1402 2.76021 35.8871 3.46216 35.4043C4.27537 34.778 4.89709 33.9349 5.25643 32.9711C5.83895 31.493 6.2245 29.9442 6.4032 28.3647C6.70376 25.9622 6.83977 23.5419 6.81018 21.1207V18.0745L3.55465 16.5143V15.9199H26.1952V16.5143L22.9767 18.0745V38.2833L26.1952 39.8436V40.438H12.7293Z" fill="#FCFBFA"/>
<path d="M32.1152 40.4381V39.8437L35.4078 38.2834V18.0746L32.1152 16.5144V15.92H45.2853V16.5144L42.4367 18.0746V26.7897H45.3222C45.4849 24.7098 46.1794 22.7073 47.3385 20.9759C48.4714 19.2939 50.0033 17.9215 51.7963 16.9825C53.6933 15.9993 55.8028 15.5016 57.9374 15.5337C59.6661 15.5157 61.3815 15.8375 62.9871 16.481C64.4898 17.0874 65.8598 17.9834 67.0196 19.1185C68.1721 20.2549 69.0844 21.6131 69.7017 23.112C70.3549 24.7147 70.6819 26.4325 70.6635 28.1642C70.6827 29.8959 70.3557 31.6139 69.7017 33.2164C69.0863 34.7162 68.1738 36.0749 67.0196 37.2098C65.8607 38.3461 64.4905 39.2424 62.9871 39.8474C61.3815 40.4909 59.6661 40.8127 57.9374 40.7947C55.7325 40.829 53.5552 40.2984 51.6113 39.253C49.7668 38.2565 48.2165 36.7894 47.1165 34.9995C45.9777 33.1387 45.3344 31.0152 45.2483 28.8329H42.4367V38.2686L45.2853 39.8288V40.4232L32.1152 40.4381ZM53.0393 37.6445C54.3021 38.3726 55.7486 38.2104 57.3788 37.1578C59.009 36.1053 60.5517 34.311 62.0068 31.775C63.0797 29.9807 63.899 28.0453 64.4411 26.0244C64.8776 24.2438 64.9602 22.712 64.6889 21.4292C64.4176 20.1463 63.8232 19.2362 62.9057 18.6987C62.4922 18.4701 62.0354 18.3314 61.565 18.2917C61.0947 18.252 60.6213 18.3122 60.1756 18.4684C58.9823 18.8748 57.8985 19.5524 57.0088 20.4484C55.7876 21.6454 54.748 23.0159 53.9235 24.5162C52.8464 26.3167 52.0294 28.2617 51.4967 30.2928C51.0626 32.0858 50.9824 33.6263 51.2562 34.9141C51.5262 36.2031 52.1219 37.1096 53.0393 37.6445Z" fill="#FCFBFA"/>
<path d="M75.8438 40.438V39.8436L79.1363 38.2833V18.0745L75.8438 16.5143V15.9199H89.4577V16.5143L86.1653 18.0745V38.2833L89.4577 39.8436V40.438H75.8438ZM86.1653 28.1789L96.2648 17.926L93.4161 16.5143V15.9199H102.739V16.5143L100.186 17.6659L92.3803 25.0956L101.74 38.692L104.551 39.8436V40.438H94.452L86.1653 28.1789Z" fill="#FCFBFA"/>
</svg>
